<svg data-name="Layer 1" xmlns="http://www.w3.org/2000/svg" viewBox="0 0 101 101"><path d="M50.85 52.49a33 33 0 00-33 33 1.5 1.5 0 001.5 1.5h63a1.5 1.5 0 001.5-1.5 33 33 0 00-33-33zM20.88 84a30 30 0 0159.93 0zM50.3 10.93a19 19 0 1019 19 19.07 19.07 0 00-19-19zm0 35.07a16 16 0 1116-16 16.07 16.07 0 01-16 16z"/><path d="M25.52 40h2A1.5 1.5 0 0029 38.5v-18a1.5 1.5 0 000-.31A23.47 23.47 0 0172 21v17.5a1.5 1.5 0 000 .32 23.42 23.42 0 01-5 7.65 1.5 1.5 0 102.13 2.11A26.39 26.39 0 0074.81 40h.67a10.5 10.5 0 100-21h-1.09a26.46 26.46 0 00-48.17 0h-.69a10.5 10.5 0 000 21zM83 29.5a7.51 7.51 0 01-7.5 7.5H75V22h.48A7.51 7.51 0 0183 29.5zM25.52 22H26v15h-.48a7.5 7.5 0 010-15z"/></svg>