<svg data-name="Слой 2" xmlns="http://www.w3.org/2000/svg" viewBox="0 0 100 100"><path d="M80.5 13h-50a1.5 1.5 0 00-1.06.44l-10 9.95a1.43 1.43 0 00-.18.27 1.45 1.45 0 00-.17.37 1.49 1.49 0 00-.07.35v.08c0 .03 0 0 0 0v63A1.5 1.5 0 0020.5 89h50a1.49 1.49 0 00.53-.1 1.5 1.5 0 00.47-.31l10-9.95a1.5 1.5 0 00.5-1.09V14.5a1.5 1.5 0 00-1.5-1.5zm-49.38 3h45.76l-7 7h-45.8zM22 86V26h46.9v.06h.06V86zm50-2.11V25.12l7-7v58.81z"/><path d="M53.5 32a1.5 1.5 0 00-1.5 1.5V41a6.29 6.29 0 01-2 4.6 7.29 7.29 0 01-5.42 1.93A6.91 6.91 0 0138 40.64V33.5a1.5 1.5 0 00-3 0v7.14a9.91 9.91 0 009.39 9.84h.6a10.28 10.28 0 007-2.76A9.26 9.26 0 0055 41v-7.5a1.5 1.5 0 00-1.5-1.5z"/></svg>